<?xml version="1.0" encoding="utf-8"?>
<!-- Generator: Adobe Illustrator 19.2.1, SVG Export Plug-In . SVG Version: 6.00 Build 0)  -->
<svg version="1.1" id="Layer_1" xmlns="http://www.w3.org/2000/svg" xmlns:xlink="http://www.w3.org/1999/xlink" x="0px" y="0px"
	 viewBox="0 0 717 99.1" style="enable-background:new 0 0 717 99.1;" xml:space="preserve">
<style type="text/css">
	.st0{fill:#C32230;}
	.st1{fill:#DC7384;}
	.st2{fill:#FFFEFE;}
	.st3{fill:#C8C8C8;}
</style>
<g>
	<path class="st0" d="M0,85.1C0,62,0,38.9,0,15.7c4.3-1.3,8.6-2.5,12.9-3.6c5.3-1.3,10.6-2.5,16-3.5C32.2,8,35.5,7.5,38.8,7
		c2.6-0.4,5.2-0.7,7.7-1.1c2.7-0.3,5.4-0.7,8.1-0.9c2.5-0.3,5-0.5,7.4-0.7c2.8-0.2,5.5-0.4,8.3-0.6c2.8-0.2,5.7-0.3,8.6-0.4
		c4.9-0.2,9.8-0.4,14.8-0.4c0.7,0,1.4,0.1,2.1-0.1c3.4,0,6.8,0,10.2,0c0.7,0.1,1.4,0.1,2.1,0.1c6.1,0.1,12.2,0.3,18.3,0.6
		c4.2,0.2,8.3,0.5,12.5,0.8c3.8,0.3,7.6,0.7,11.4,1.1c4,0.5,8.1,1,12.1,1.6c4.8,0.7,9.5,1.5,14.2,2.5c8.5,1.7,16.9,3.8,25.2,6.3
		c0,23.1,0,46.2,0,69.4c-4.3,1.3-8.6,2.5-13,3.6c-5.2,1.3-10.4,2.4-15.6,3.4c-3.2,0.6-6.5,1.2-9.7,1.7c-2.8,0.4-5.5,0.8-8.3,1.2
		c-2.7,0.3-5.4,0.7-8.1,0.9c-2.5,0.3-4.9,0.5-7.4,0.7c-2.8,0.2-5.5,0.4-8.3,0.6c-2.8,0.2-5.7,0.3-8.6,0.4c-4.9,0.2-9.8,0.4-14.8,0.4
		c-0.7,0-1.4-0.1-2.1,0.1c-3.4,0-6.8,0-10.2,0C95,97.9,94.3,98,93.6,98c-1.7,0-3.5-0.1-5.2-0.1c-5.4-0.1-10.7-0.3-16.1-0.6
		c-4.7-0.3-9.4-0.6-14.1-1.1c-3.4-0.3-6.8-0.7-10.2-1.1c-3.1-0.4-6.1-0.8-9.2-1.3c-4.7-0.7-9.4-1.5-14.1-2.5
		C16.4,89.7,8.2,87.6,0,85.1z M111.5,54.7c2.5-0.3,4.4-0.8,6.4-1.8c3.4-1.6,6-3.9,7.4-7.5c1.2-3,1.3-6.1,0.6-9.3
		c-1-5-4.1-8.4-8.7-10.4c-3.3-1.4-6.8-1.9-10.3-1.9c-11.8,0-23.6,0-35.5,0c-0.6,0-0.6,0-0.6,0.6c0,0.2,0.1,0.4,0.3,0.4
		c0.1,0,0.3,0.1,0.4,0.1c2.1,0.7,3.7,1.9,4.3,4.2c0.3,1.1,0.4,2.2,0.4,3.3c0,11.3,0,22.7,0,34c0,0.4,0,0.8,0,1.1
		c-0.1,1.4-0.4,2.8-1.2,4c-0.9,1.3-2.3,2-3.8,2.4c-0.4,0.1-0.4,0.3-0.4,0.9c0.1,0.4,0.3,0.2,0.5,0.2c7.8,0,15.6,0,23.5,0
		c0.1,0,0.2,0,0.3,0c0.1,0,0.2,0,0.2-0.1c0-0.3,0-0.5,0-0.8c0-0.2-0.2-0.2-0.4-0.2c-1.9-0.6-3.5-1.5-4.3-3.4c-0.4-1-0.7-2.1-0.7-3.2
		c0-3.4,0-6.8,0-10.2c0-0.2,0-0.3,0.3-0.3c2.8,0,5.6-0.1,8.4,0.1c2.3,0.1,4.1,1.1,5.3,3c0.9,1.5,1.9,3,2.9,4.5
		c1.6,2.5,3.1,4.9,4.8,7.4c1.5,2.2,3.5,3.3,6.3,3.3c4.8-0.1,9.6,0,14.4,0c0.7,0,0.7,0,0.6-0.7c0-0.2-0.1-0.2-0.2-0.2
		c-1.2-0.1-2.2-0.5-3.1-1.2c-1.7-1.2-2.9-2.7-4-4.4c-1.8-2.9-3.7-5.8-5.5-8.6c-0.4-0.6-0.8-1.2-1.4-1.7c-1.6-1.5-3.4-2.5-5.5-3.1
		C112.5,55,112,54.9,111.5,54.7z M45.3,76.2c2.4,0,5-0.2,7.4-0.7c3.8-0.8,7.4-2.2,10.5-4.4c4.2-3,7.1-7,8.6-11.9
		c0.1-0.2,0.3-0.4-0.2-0.4c-2.1,0-4.3,0-6.4,0c-0.2,0-0.3,0.1-0.4,0.3c-2,3.9-5,6.6-9,8.3c-5,2.1-10,2.1-15.1,0.4
		c-4.7-1.6-8.4-4.5-10.7-9c-2-3.9-2.5-8.1-1.9-12.4c0.7-5,3.1-9,7.2-11.9c5-3.6,10.6-4.8,16.5-3.7c6.9,1.2,11.7,5.1,14,11.8
		c0.1,0.2,0.1,0.3,0.3,0.3c1.1,0,2.1,0,3.2,0c0.2,0,0.3,0,0.3-0.3c-0.3-2.2-0.6-4.5-0.9-6.7c-0.3-2.3-0.6-4.6-0.9-6.9
		c-0.2-1.6-0.4-3.2-0.7-4.8c0-0.1,0-0.2-0.1-0.2c-0.2-0.1-0.9,0-1,0.3c-0.3,0.6-0.8,1.1-1.5,1.3c-0.9,0.2-1.7,0.2-2.6,0.1
		c-1-0.1-2-0.5-3-0.8c-3.4-1.1-6.9-1.8-10.4-2c-3.5-0.2-6.9,0.1-10.3,0.8c-5.9,1.2-11.3,3.6-15.9,7.5c-3.5,3-6.1,6.6-7.6,10.9
		c-1.3,3.7-1.5,7.4-1,11.2c0.5,3.5,1.7,6.8,3.7,9.8c3,4.6,7.2,7.8,12.2,10C34.5,75.3,39.8,76.1,45.3,76.2z M161.4,76.2
		c1.5,0,3-0.1,4.5-0.2c1-0.1,2-0.3,3-0.5c4.6-1,8.8-2.8,12.4-5.8c3.3-2.9,5.6-6.4,6.8-10.6c0.1-0.2,0.1-0.3-0.2-0.3
		c-2.2,0-4.3,0-6.5,0c-0.2,0-0.3,0.1-0.4,0.3c-2,3.9-5.1,6.6-9.1,8.3c-4.7,2-9.4,2.1-14.3,0.7c-4.7-1.4-8.4-4-10.9-8.3
		c-2.4-4.1-3.1-8.6-2.4-13.3c0.8-5.3,3.4-9.5,7.9-12.5c5.2-3.4,10.9-4.4,16.9-3c6.3,1.5,10.8,5.3,12.9,11.6c0.1,0.2,0.2,0.2,0.4,0.2
		c1.1,0,2.1,0,3.2,0c0.3,0,0.3-0.1,0.3-0.3c-0.1-0.6-0.2-1.3-0.3-1.9c-0.4-2.7-0.7-5.4-1.1-8c-0.4-2.8-0.8-5.5-1.1-8.3
		c0-0.1,0-0.2-0.1-0.2c-0.2-0.1-0.9,0-1,0.2c-0.3,0.6-0.7,1.2-1.5,1.4c-0.9,0.2-1.7,0.3-2.6,0.1c-1.1-0.1-2.1-0.5-3.1-0.8
		c-3.5-1.1-7-1.8-10.7-2c-4.1-0.2-8.2,0.2-12.3,1.3c-5.3,1.4-10.2,3.8-14.3,7.5c-6.4,5.9-9.3,13-8,21.7c0.5,3.5,1.7,6.8,3.6,9.7
		c3,4.6,7.2,7.8,12.2,10C150.7,75.3,156,76.1,161.4,76.2z M150.9,48.2c-0.3,2,0,4,0.7,5.9c1.1,3.1,3.1,5.5,5.9,7.1
		c5.7,3.3,13,1.9,17-3.2c4.1-5.1,3.9-12.5-0.6-17.3c-4.6-5-11-5.1-15.1-3.2c0.1,0,0.2-0.1,0.3-0.1c2.8-1,5.6-1,8.4-0.1
		c0.6,0.2,0.8,0.5,0.5,1.1c-0.3,0.7-0.7,1.2-1.2,1.8c-0.1,0.1-0.2,0-0.3,0c-1.7-1.1-3.5-1.7-5.4-2.1c-0.4-0.1-0.7-0.2-1.1-0.2
		c-0.4,0-0.8-0.1-1.1-0.1c2.6,0.5,5,1.5,7,3.2c-0.1,0.1-0.1,0.1-0.1,0.2c-1.3,1-2.6,1.9-4.1,2.6c-0.2,0.1-0.3,0-0.4-0.1
		c-0.5-0.6-1.1-1.1-1.6-1.6c-0.7-0.6-1.4-1.2-2.2-1.7c0,0.2,0.1,0.2,0.2,0.3c0.9,1.1,1.7,2.2,2.5,3.4c0.1,0.2,0.2,0.4-0.1,0.4
		c-0.1,0-0.1,0-0.2,0.1c-1.3,0.5-2.7,0.9-4.1,1.2c-0.3,0.1-0.5,0.1-0.5-0.4c0-0.5,0-0.9-0.1-1.4c0-0.2,0-0.4-0.1-0.6
		c-0.3,0.7-0.4,1.4-0.5,2.2c0,0.4-0.2,0.4-0.5,0.5c-0.8,0-1.7,0.1-2.6-0.2c0.2,0.5,0.5,0.7,0.9,0.8c0.5,0.2,1.1,0.3,1.7,0.3
		c0.4,0,0.5,0.1,0.4,0.5c0,0.7,0,1.5,0.1,2.2c0.1,1.1,0.4,2.2,0.7,3.2c0,0.1,0.1,0.2-0.1,0.3c-1.1,0.1-2.1,0.2-3.2,0
		c-0.3-0.1-0.5-0.2-0.6-0.6C151.1,51,150.9,49.6,150.9,48.2z M183.3,72.8c0,1.9,1.5,3.3,3.3,3.4c1.9,0,3.4-1.5,3.4-3.3
		c0-1.8-1.5-3.3-3.3-3.3C184.8,69.5,183.3,71,183.3,72.8z"/>
	<path class="st1" d="M93.6,2.8C93.6,2.8,93.6,2.8,93.6,2.8c0.7-0.1,1.4-0.1,2.1-0.1C95,2.9,94.3,2.8,93.6,2.8z"/>
	<path class="st1" d="M108,2.8C108,2.8,108,2.8,108,2.8c-0.7,0.1-1.4,0.1-2,0C106.6,2.8,107.3,2.8,108,2.8z"/>
	<path class="st1" d="M93.7,98.1C93.6,98.1,93.6,98,93.7,98.1c0.7-0.1,1.4-0.1,2,0C95,98.1,94.4,98.1,93.7,98.1z"/>
	<path class="st1" d="M108,98C108,98,108,98.1,108,98c-0.7,0.1-1.4,0.1-2.1,0.1C106.6,97.9,107.3,98,108,98z"/>
	<path class="st2" d="M111.5,54.7c0.6,0.2,1,0.3,1.5,0.5c2.1,0.7,3.9,1.6,5.5,3.1c0.5,0.5,1,1.1,1.4,1.7c1.8,2.9,3.7,5.8,5.5,8.6
		c1.1,1.7,2.4,3.2,4,4.4c0.9,0.7,1.9,1.1,3.1,1.2c0.2,0,0.2,0.1,0.2,0.2c0,0.7,0.1,0.7-0.6,0.7c-4.8,0-9.6-0.1-14.4,0
		c-2.8,0.1-4.8-1.1-6.3-3.3c-1.6-2.4-3.2-4.9-4.8-7.4c-1-1.5-1.9-3-2.9-4.5c-1.2-2-3-2.9-5.3-3c-2.8-0.1-5.6,0-8.4-0.1
		c-0.3,0-0.3,0.1-0.3,0.3c0,3.4,0,6.8,0,10.2c0,1.1,0.2,2.2,0.7,3.2c0.8,1.9,2.4,2.8,4.3,3.4c0.1,0,0.4,0,0.4,0.2c0,0.3,0,0.5,0,0.8
		c0,0.1-0.1,0.1-0.2,0.1c-0.1,0-0.2,0-0.3,0c-7.8,0-15.6,0-23.5,0c-0.2,0-0.4,0.2-0.5-0.2c-0.1-0.6,0-0.7,0.4-0.9
		c1.5-0.4,2.9-1.1,3.8-2.4c0.9-1.2,1.1-2.6,1.2-4c0-0.4,0-0.8,0-1.1c0-11.3,0-22.7,0-34c0-1.1-0.1-2.2-0.4-3.3
		c-0.6-2.2-2.2-3.5-4.3-4.2c-0.1,0-0.3-0.1-0.4-0.1c-0.3,0-0.3-0.2-0.3-0.4c0-0.6,0-0.6,0.6-0.6c11.8,0,23.6,0,35.5,0
		c3.6,0,7,0.5,10.3,1.9c4.7,2,7.7,5.4,8.7,10.4c0.6,3.1,0.6,6.2-0.6,9.3c-1.4,3.5-4,5.9-7.4,7.5C115.9,53.9,114,54.4,111.5,54.7z
		 M94.8,31.8C94.8,31.8,94.8,31.8,94.8,31.8c-3,0-5.9,0-8.9,0c-0.1,0-0.3-0.1-0.3,0.1c0,0.2,0,0.3,0.2,0.4c0.2,0.1,0.5,0.2,0.7,0.3
		c1.4,0.7,2.4,1.8,2.9,3.3c0.3,0.8,0.3,1.7,0.3,2.5c0,3.4,0,6.8,0,10.2c0,0.3,0,0.5,0.4,0.5c4.2,0,8.4,0,12.6,0c0.8,0,1.5,0,2.3-0.2
		c3.3-0.7,5.5-2.5,6.3-5.8c0.6-2.4,0.3-4.8-0.8-7c-0.8-1.6-2-2.8-3.7-3.5c-1.2-0.5-2.4-0.8-3.7-0.8C100.5,31.8,97.7,31.8,94.8,31.8z
		"/>
	<path class="st2" d="M45.3,76.2c-5.5-0.1-10.8-0.9-15.8-3.1c-5-2.2-9.2-5.4-12.2-10c-2-3-3.1-6.3-3.7-9.8c-0.6-3.8-0.3-7.6,1-11.2
		c1.5-4.3,4.2-7.9,7.6-10.9c4.6-4,10-6.3,15.9-7.5c3.4-0.7,6.8-0.9,10.3-0.8c3.6,0.2,7,0.9,10.4,2c1,0.3,2,0.7,3,0.8
		c0.9,0.1,1.7,0.1,2.6-0.1c0.7-0.2,1.2-0.7,1.5-1.3c0.1-0.3,0.8-0.4,1-0.3c0.1,0.1,0.1,0.1,0.1,0.2c0.2,1.6,0.4,3.2,0.7,4.8
		c0.3,2.3,0.6,4.6,0.9,6.9c0.3,2.2,0.6,4.5,0.9,6.7c0,0.2,0,0.3-0.3,0.3c-1.1,0-2.1,0-3.2,0c-0.2,0-0.3-0.1-0.3-0.3
		c-2.3-6.7-7.1-10.5-14-11.8c-6-1.1-11.6,0.1-16.5,3.7c-4.1,2.9-6.5,6.9-7.2,11.9c-0.6,4.3-0.2,8.5,1.9,12.4c2.3,4.5,5.9,7.4,10.7,9
		c5.1,1.7,10.1,1.7,15.1-0.4c4-1.7,7-4.4,9-8.3c0.1-0.2,0.2-0.3,0.4-0.3c2.1,0,4.3,0,6.4,0c0.5,0,0.3,0.3,0.2,0.4
		c-1.5,5-4.4,8.9-8.6,11.9c-3.2,2.2-6.7,3.6-10.5,4.4C50.2,76,47.7,76.2,45.3,76.2z"/>
	<path class="st2" d="M161.4,76.2c-5.4-0.1-10.7-0.9-15.7-3.1c-5-2.2-9.2-5.4-12.2-10c-1.9-3-3.1-6.2-3.6-9.7
		c-1.3-8.7,1.7-15.9,8-21.7c4.1-3.7,8.9-6.1,14.3-7.5c4-1.1,8.1-1.4,12.3-1.3c3.6,0.1,7.2,0.9,10.7,2c1,0.3,2,0.7,3.1,0.8
		c0.9,0.1,1.7,0.1,2.6-0.1c0.7-0.2,1.2-0.7,1.5-1.4c0.1-0.2,0.9-0.4,1-0.2c0.1,0.1,0,0.1,0.1,0.2c0.4,2.8,0.8,5.5,1.1,8.3
		c0.4,2.7,0.7,5.4,1.1,8c0.1,0.6,0.2,1.3,0.3,1.9c0,0.2,0,0.3-0.3,0.3c-1.1,0-2.1,0-3.2,0c-0.2,0-0.3-0.1-0.4-0.2
		c-2.1-6.3-6.5-10.1-12.9-11.6c-6-1.4-11.7-0.5-16.9,3c-4.5,2.9-7.1,7.1-7.9,12.5c-0.7,4.7-0.1,9.2,2.4,13.3
		c2.5,4.2,6.3,6.9,10.9,8.3c4.8,1.4,9.6,1.3,14.3-0.7c4-1.7,7.1-4.4,9.1-8.3c0.1-0.2,0.2-0.3,0.4-0.3c2.2,0,4.3,0,6.5,0
		c0.3,0,0.3,0.1,0.2,0.3c-1.2,4.2-3.5,7.7-6.8,10.6c-3.6,3.1-7.8,4.9-12.4,5.8c-1,0.2-2,0.4-3,0.5C164.4,76.1,162.9,76.2,161.4,76.2
		z"/>
	<path class="st2" d="M150.9,48.2c0,1.4,0.2,2.8,0.5,4.2c0.1,0.3,0.3,0.5,0.6,0.6c1.1,0.2,2.1,0.1,3.2,0c0.2,0,0.1-0.2,0.1-0.3
		c-0.3-1-0.6-2.1-0.7-3.2c-0.1-0.7-0.2-1.5-0.1-2.2c0-0.3,0-0.5-0.4-0.5c-0.6,0-1.1-0.1-1.7-0.3c-0.4-0.2-0.7-0.4-0.9-0.8
		c0.9,0.3,1.7,0.2,2.6,0.2c0.3,0,0.5,0,0.5-0.5c0.1-0.7,0.2-1.4,0.5-2.2c0.1,0.2,0.1,0.4,0.1,0.6c0,0.5,0.1,1,0.1,1.4
		c0,0.4,0.2,0.4,0.5,0.4c1.4-0.3,2.7-0.7,4.1-1.2c0.1,0,0.1,0,0.2-0.1c0.3-0.1,0.3-0.2,0.1-0.4c-0.8-1.2-1.6-2.3-2.5-3.4
		c-0.1-0.1-0.2-0.1-0.2-0.3c0.8,0.5,1.5,1.1,2.2,1.7c0.6,0.5,1.1,1.1,1.6,1.6c0.1,0.1,0.2,0.2,0.4,0.1c1.5-0.7,2.9-1.6,4.1-2.6
		c0.1,0,0.1-0.1,0.1-0.2c-2.1-1.7-4.4-2.7-7-3.2c0.4-0.1,0.8,0,1.1,0.1c0.4,0,0.8,0.1,1.1,0.2c1.9,0.4,3.7,1.1,5.4,2.1
		c0.1,0.1,0.2,0.2,0.3,0c0.5-0.5,1-1.1,1.2-1.8c0.2-0.6,0.1-0.9-0.5-1.1c-2.8-0.9-5.6-0.9-8.4,0.1c-0.1,0-0.2,0.1-0.3,0.1
		c4.2-1.9,10.5-1.8,15.1,3.2c4.4,4.8,4.7,12.2,0.6,17.3c-4.1,5.1-11.3,6.5-17,3.2c-2.8-1.6-4.8-4-5.9-7.1
		C150.9,52.2,150.6,50.2,150.9,48.2z M157.2,52.8c0.1,0,0.1,0,0.1,0c2.1-0.4,4.2-1,6.1-1.8c0.2-0.1,0.2-0.2,0.1-0.3
		c-0.7-1.6-1.5-3.2-2.4-4.8c-0.1-0.2-0.2-0.2-0.4-0.2c-1.6,0.6-3.3,1-5.1,1.2c-0.2,0-0.2,0-0.2,0.2c0.3,1.9,0.8,3.7,1.5,5.5
		C157,52.6,157.1,52.8,157.2,52.8z M167.4,42.2c-0.1,0.1-0.2,0.1-0.2,0.2c-1.4,1-2.9,1.8-4.5,2.5c-0.2,0.1-0.2,0.1-0.1,0.3
		c1.1,1.4,2,3,2.7,4.6c0.1,0.2,0.1,0.2,0.4,0.1c1.6-0.8,3.1-1.7,4.5-2.8c0.2-0.1,0.2-0.2,0.1-0.4c-0.7-1.6-1.6-3-2.8-4.3
		C167.5,42.4,167.4,42.3,167.4,42.2z M157.9,54.4c0.8,1.4,1.6,2.7,2.7,3.9c0.1,0.1,0.2,0.2,0.3,0.1c1.7-0.2,3.3-0.7,4.9-1.3
		c0.2-0.1,0.3-0.1,0.2-0.4c-0.5-1.3-1-2.6-1.4-3.9c-0.1-0.2-0.1-0.2-0.3-0.2C162.2,53.5,160.1,54.1,157.9,54.4z M171.2,49.1
		c-1.5,1.1-3.1,2-4.8,2.8c-0.2,0.1-0.1,0.2-0.1,0.3c0.5,1.3,0.9,2.6,1.3,3.9c0.1,0.2,0.1,0.3,0.3,0.2c1.3-0.6,2.6-1.4,3.8-2.2
		c0.2-0.1,0.3-0.3,0.2-0.5C171.9,52,171.7,50.6,171.2,49.1z M171.7,45.9c1-0.9,1.7-1.9,2-2.8c0.2-0.7,0.1-1.3-0.4-1.9
		c-0.5-0.6-1-1.1-1.6-1.6c-0.5-0.4-1-0.8-1.7-1.2c0.1,0.7-0.2,1.2-0.5,1.8c-0.3,0.4-0.6,0.8-1,1.1c-0.1,0.1-0.2,0.2,0,0.3
		C169.8,42.8,170.9,44.2,171.7,45.9z M173.5,52.6c1.1-1.1,2.1-2.3,2.5-3.8c0.4-1.6-0.2-3-0.7-4.4c-0.1,0.5-0.3,1-0.6,1.4
		c-0.5,0.8-1.1,1.4-1.7,2c-0.2,0.2-0.2,0.3-0.2,0.6c0.3,0.8,0.4,1.6,0.6,2.4C173.4,51.3,173.4,51.9,173.5,52.6z M151.9,53.8
		c0.1,0.2,0.2,0.4,0.3,0.7c0.4,0.8,0.8,1.5,1.3,2.2c1,1.7,3.2,2,5.1,1.9c-0.1-0.1-0.2-0.2-0.3-0.4c-0.8-1-1.5-2.1-2.1-3.3
		c-0.1-0.3-0.3-0.4-0.6-0.4C154.3,54.6,153.1,54.5,151.9,53.8z M172,55.9c-1.2,0.8-2.5,1.5-3.7,2.1c-0.2,0.1-0.1,0.2-0.1,0.3
		c0.1,0.7,0.2,1.4,0.3,2.1c0,0.2,0.1,0.3,0.3,0.2c0.8-0.4,1.6-0.9,2.4-1.5c0.1-0.1,0.2-0.2,0.2-0.3C171.8,57.9,171.9,57,172,55.9z
		 M162,59.8c0.7,0.7,1.5,1.2,2.2,1.8c0.2,0.1,0.4,0.2,0.6,0.1c0.8-0.1,1.6-0.2,2.3-0.5c0.2-0.1,0.3-0.1,0.2-0.4
		c-0.2-0.6-0.4-1.3-0.6-1.9c-0.1-0.3-0.2-0.3-0.4-0.2C164.9,59.3,163.5,59.6,162,59.8z M156.3,59.4c1.2,1.2,5.1,2.6,6.3,2.3
		c-0.9-0.5-1.7-1-2.4-1.6c-0.1-0.1-0.2-0.1-0.3-0.1C158.6,59.9,157.4,59.8,156.3,59.4z M175.7,52.5c-0.6,0.9-1.4,1.6-2.2,2.3
		c-0.1,0.1-0.1,0.2-0.1,0.3c-0.1,0.8-0.3,1.7-0.5,2.5C174,56.6,175.5,53.9,175.7,52.5z"/>
	<path class="st2" d="M183.3,72.8c0-1.9,1.5-3.3,3.4-3.3c1.8,0,3.3,1.5,3.3,3.3c0,1.9-1.5,3.4-3.4,3.3
		C184.8,76.2,183.3,74.7,183.3,72.8z M186.7,75.5c1.5,0,2.6-1.1,2.7-2.6c0-1.5-1.2-2.7-2.6-2.7c-1.5,0-2.7,1.2-2.7,2.7
		C184,74.3,185.2,75.5,186.7,75.5z"/>
	<path class="st0" d="M94.8,31.8c2.8,0,5.6,0,8.4,0c1.3,0,2.5,0.2,3.7,0.8c1.6,0.7,2.9,1.9,3.7,3.5c1.1,2.2,1.4,4.6,0.8,7
		c-0.8,3.3-3.1,5.1-6.3,5.8c-0.8,0.2-1.5,0.2-2.3,0.2c-4.2,0-8.4,0-12.6,0c-0.4,0-0.4-0.1-0.4-0.5c0-3.4,0-6.8,0-10.2
		c0-0.9-0.1-1.7-0.3-2.5c-0.5-1.5-1.5-2.6-2.9-3.3c-0.2-0.1-0.5-0.2-0.7-0.3c-0.2-0.1-0.3-0.2-0.2-0.4c0-0.2,0.2-0.1,0.3-0.1
		C88.9,31.8,91.9,31.8,94.8,31.8C94.8,31.8,94.8,31.8,94.8,31.8z"/>
	<path class="st0" d="M157.2,52.8c-0.1,0-0.1-0.1-0.2-0.2c-0.7-1.8-1.2-3.6-1.5-5.5c0-0.2,0-0.2,0.2-0.2c1.8-0.2,3.4-0.6,5.1-1.2
		c0.2-0.1,0.3,0,0.4,0.2c0.9,1.6,1.7,3.2,2.4,4.8c0.1,0.1,0.1,0.2-0.1,0.3c-2,0.8-4,1.4-6.1,1.8C157.3,52.7,157.2,52.7,157.2,52.8z"
		/>
	<path class="st0" d="M167.4,42.2c0,0.1,0.1,0.2,0.2,0.2c1.1,1.3,2.1,2.7,2.8,4.3c0.1,0.2,0.1,0.3-0.1,0.4c-1.4,1.1-3,2-4.5,2.8
		c-0.2,0.1-0.3,0-0.4-0.1c-0.8-1.6-1.7-3.2-2.7-4.6c-0.1-0.2-0.1-0.2,0.1-0.3c1.6-0.7,3.1-1.5,4.5-2.5
		C167.2,42.3,167.3,42.3,167.4,42.2z"/>
	<path class="st0" d="M157.9,54.4c2.2-0.3,4.3-0.9,6.3-1.7c0.2-0.1,0.3,0,0.3,0.2c0.5,1.3,1,2.6,1.4,3.9c0.1,0.2,0,0.3-0.2,0.4
		c-1.6,0.6-3.2,1-4.9,1.3c-0.2,0-0.2,0-0.3-0.1C159.5,57.1,158.6,55.9,157.9,54.4z"/>
	<path class="st0" d="M171.2,49.1c0.4,1.5,0.7,2.9,0.8,4.4c0,0.2,0,0.4-0.2,0.5c-1.2,0.9-2.5,1.6-3.8,2.2c-0.2,0.1-0.3,0-0.3-0.2
		c-0.3-1.3-0.8-2.6-1.3-3.9c0-0.1-0.1-0.2,0.1-0.3C168.1,51.1,169.7,50.2,171.2,49.1z"/>
	<path class="st0" d="M171.7,45.9c-0.8-1.6-1.9-3.1-3.2-4.3c-0.1-0.1-0.1-0.2,0-0.3c0.4-0.3,0.7-0.7,1-1.1c0.4-0.5,0.6-1,0.5-1.8
		c0.6,0.3,1.2,0.7,1.7,1.2c0.6,0.5,1.1,1.1,1.6,1.6c0.5,0.6,0.6,1.2,0.4,1.9C173.4,43.9,172.7,45,171.7,45.9z"/>
	<path class="st0" d="M173.5,52.6c-0.1-0.7-0.1-1.3-0.2-1.9c-0.1-0.8-0.3-1.6-0.6-2.4c-0.1-0.2,0-0.4,0.2-0.6c0.7-0.6,1.3-1.2,1.7-2
		c0.3-0.4,0.5-0.9,0.6-1.4c0.5,1.4,1.1,2.8,0.7,4.4C175.6,50.3,174.6,51.5,173.5,52.6z"/>
	<path class="st0" d="M151.9,53.8c1.2,0.7,2.4,0.8,3.7,0.8c0.3,0,0.4,0.1,0.6,0.4c0.6,1.2,1.3,2.3,2.1,3.3c0.1,0.1,0.2,0.2,0.3,0.4
		c-1.9,0.1-4.1-0.2-5.1-1.9c-0.4-0.7-0.9-1.4-1.3-2.2C152.1,54.3,152,54,151.9,53.8z"/>
	<path class="st0" d="M172,55.9c-0.1,1-0.2,2-0.6,2.9c0,0.1-0.1,0.2-0.2,0.3c-0.7,0.6-1.5,1-2.4,1.5c-0.2,0.1-0.3,0.1-0.3-0.2
		c-0.1-0.7-0.2-1.4-0.3-2.1c0-0.1-0.1-0.3,0.1-0.3C169.6,57.5,170.8,56.8,172,55.9z"/>
	<path class="st0" d="M162,59.8c1.5-0.2,2.9-0.5,4.3-1c0.2-0.1,0.3-0.1,0.4,0.2c0.2,0.6,0.4,1.3,0.6,1.9c0.1,0.2,0,0.3-0.2,0.4
		c-0.8,0.2-1.5,0.4-2.3,0.5c-0.2,0-0.4,0-0.6-0.1C163.5,61.1,162.7,60.5,162,59.8z"/>
	<path class="st0" d="M156.3,59.4c1.2,0.4,2.4,0.6,3.6,0.6c0.1,0,0.2,0,0.3,0.1c0.7,0.6,1.5,1.2,2.4,1.6
		C161.4,62,157.5,60.6,156.3,59.4z"/>
	<path class="st0" d="M175.7,52.5c-0.2,1.4-1.7,4.2-2.8,5.1c0.2-0.8,0.4-1.7,0.5-2.5c0-0.1,0-0.2,0.1-0.3
		C174.3,54.1,175,53.3,175.7,52.5z"/>
	<path class="st0" d="M186.7,75.5c-1.5,0-2.6-1.2-2.6-2.6c0-1.5,1.2-2.7,2.7-2.7c1.5,0,2.6,1.2,2.6,2.7
		C189.3,74.3,188.1,75.5,186.7,75.5z M188.3,74.6c-0.2-0.3-0.2-0.6-0.2-0.8c0-0.3,0-0.6-0.3-0.8c-0.2-0.1,0-0.1,0.1-0.2
		c0.3-0.3,0.4-0.7,0.2-1.1c-0.1-0.4-0.4-0.5-0.7-0.6c-0.6-0.1-1.2,0-1.9-0.1c-0.2,0-0.2,0.1-0.2,0.3c0,1,0,2,0,3.1
		c0,0.2,0.1,0.3,0.3,0.3c0.2,0,0.2-0.1,0.2-0.3c0-0.2,0-0.4,0-0.6c0-0.7,0-0.7,0.7-0.7c1,0,1,0,1.1,1
		C187.7,74.7,187.7,74.7,188.3,74.6z"/>
	<path class="st2" d="M188.3,74.6c-0.6,0.1-0.6,0.1-0.7-0.5c-0.1-1-0.1-1-1.1-1c-0.7,0-0.7,0-0.7,0.7c0,0.2,0,0.4,0,0.6
		c0,0.2,0,0.3-0.2,0.3c-0.2,0-0.3-0.1-0.3-0.3c0-1,0-2,0-3.1c0-0.1,0-0.3,0.2-0.3c0.6,0,1.2-0.1,1.9,0.1c0.4,0.1,0.6,0.2,0.7,0.6
		c0.1,0.4,0.1,0.7-0.2,1.1c0,0-0.2,0.1-0.1,0.2c0.3,0.2,0.3,0.5,0.3,0.8C188.1,74.1,188.1,74.4,188.3,74.6z M186.5,72.7
		c0.2,0,0.4,0,0.6,0c0.3,0,0.5-0.3,0.5-0.6c0-0.3-0.1-0.6-0.5-0.6c-0.3,0-0.6,0-0.9,0c-0.4,0-0.5,0.1-0.4,0.4
		C185.8,72.7,185.8,72.7,186.5,72.7z"/>
	<path class="st0" d="M186.5,72.7c-0.7,0-0.7,0-0.8-0.8c0-0.4,0.1-0.5,0.4-0.4c0.3,0,0.6,0,0.9,0c0.4,0,0.5,0.3,0.5,0.6
		c0,0.3-0.2,0.5-0.5,0.6C187,72.7,186.7,72.7,186.5,72.7z"/>
</g>
<g>
	<g>
		<path class="st3" d="M234.6,48.5c0-5.3,0.2-7,1-9.3c1.8-5.6,6.2-8.4,12.2-8.4c5.8,0,10,2.8,11.9,7.6c0.2,0.3,0,0.5-0.3,0.6
			l-5.5,2.5c-0.3,0.2-0.6,0-0.7-0.3c-1-2.2-2.6-3.9-5.4-3.9c-2.7,0-4.4,1.4-5.1,3.8c-0.4,1.3-0.6,2.5-0.6,7.3s0.2,6.1,0.6,7.3
			c0.8,2.4,2.5,3.8,5.1,3.8c2.9,0,4.5-1.7,5.4-3.9c0.2-0.3,0.4-0.4,0.7-0.3l5.5,2.5c0.3,0.1,0.4,0.4,0.3,0.6
			c-1.9,4.8-6.1,7.6-11.9,7.6c-6,0-10.4-2.8-12.2-8.4C234.8,55.5,234.6,53.7,234.6,48.5z"/>
		<path class="st3" d="M283.4,65.6c-0.5,0-0.6-0.2-0.8-0.5l-5.9-12.5h-4.6c-0.2,0-0.3,0.1-0.3,0.3V65c0,0.3-0.2,0.5-0.5,0.5H265
			c-0.3,0-0.5-0.2-0.5-0.5V31.9c0-0.3,0.2-0.5,0.5-0.5h13.6c7,0,11.6,4.4,11.6,10.6c0,4.4-2.3,7.8-6.1,9.5l6.7,13.5
			c0.2,0.3,0,0.6-0.4,0.6C290.5,65.6,283.4,65.6,283.4,65.6z M282.8,42c0-2.6-1.8-4.2-4.6-4.2h-6c-0.2,0-0.3,0.1-0.3,0.3v7.9
			c0,0.2,0.1,0.3,0.3,0.3h6C281,46.2,282.8,44.6,282.8,42z"/>
		<path class="st3" d="M294.7,48.5c0-5.3,0.2-7,1-9.3c1.8-5.6,6.2-8.4,12.2-8.4c5.8,0,10,2.8,11.9,7.6c0.2,0.3,0,0.5-0.3,0.6
			l-5.5,2.5c-0.3,0.2-0.6,0-0.7-0.3c-1-2.2-2.6-3.9-5.4-3.9c-2.7,0-4.4,1.4-5.1,3.8c-0.4,1.3-0.6,2.5-0.6,7.3s0.2,6.1,0.6,7.3
			c0.8,2.4,2.5,3.8,5.1,3.8c2.9,0,4.5-1.7,5.4-3.9c0.2-0.3,0.4-0.4,0.7-0.3l5.5,2.5c0.3,0.1,0.4,0.4,0.3,0.6
			c-1.9,4.8-6.1,7.6-11.9,7.6c-6,0-10.4-2.8-12.2-8.4C294.9,55.5,294.7,53.7,294.7,48.5z"/>
		<path class="st3" d="M336.4,31.9c0-0.3,0.2-0.5,0.5-0.5h6.4c0.3,0,0.5,0.2,0.5,0.5V65c0,0.3-0.2,0.5-0.5,0.5h-6.4
			c-0.3,0-0.5-0.2-0.5-0.5V31.9z"/>
		<path class="st3" d="M350.4,31.9c0-0.3,0.2-0.5,0.5-0.5h6c0.4,0,0.7,0.2,0.9,0.5l12.1,21.5h0.3V31.9c0-0.3,0.2-0.5,0.5-0.5h5.7
			c0.3,0,0.5,0.2,0.5,0.5V65c0,0.3-0.2,0.5-0.5,0.5h-6c-0.4,0-0.7-0.2-0.9-0.5l-12.1-21.5H357V65c0,0.3-0.2,0.5-0.5,0.5h-5.7
			c-0.3,0-0.5-0.2-0.5-0.5L350.4,31.9L350.4,31.9z"/>
		<path class="st3" d="M383.3,31.9c0-0.3,0.2-0.5,0.5-0.5h12.7c6,0,10.2,2.6,11.8,7.7c0.6,1.9,0.9,3.8,0.9,9.4s-0.3,7.5-0.9,9.4
			c-1.7,5.1-5.8,7.7-11.8,7.7h-12.7c-0.3,0-0.5-0.2-0.5-0.5V31.9z M391,59h3.9c3.4,0,5.5-1,6.3-3.8c0.4-1,0.6-2.3,0.6-6.7
			s-0.2-5.7-0.6-6.7c-0.9-2.8-2.9-3.8-6.3-3.8H391c-0.2,0-0.3,0.1-0.3,0.3v20.4C390.7,58.9,390.8,59,391,59z"/>
		<path class="st3" d="M414.8,53V31.9c0-0.3,0.2-0.5,0.5-0.5h6.4c0.3,0,0.5,0.2,0.5,0.5v21.3c0,4.1,2.3,6.4,5.7,6.4
			c3.4,0,5.7-2.3,5.7-6.4V31.9c0-0.3,0.2-0.5,0.5-0.5h6.4c0.3,0,0.5,0.2,0.5,0.5V53c0,8.5-5.4,13.1-13.1,13.1
			C420.3,66.1,414.8,61.5,414.8,53z"/>
		<path class="st3" d="M445.8,61.4c-0.2-0.2-0.3-0.6-0.1-0.9l3.8-4.4c0.2-0.3,0.5-0.3,0.8,0c2.3,1.8,5.3,3.5,9,3.5
			c3.6,0,5.6-1.7,5.6-4.1c0-2-1.2-3.3-5.3-3.8l-1.8-0.3c-6.9-1-10.8-4.2-10.8-10.3c0-6.3,4.7-10.5,12.1-10.5c4.5,0,8.8,1.4,11.6,3.6
			c0.3,0.2,0.4,0.4,0.1,0.8l-3.1,4.6c-0.2,0.3-0.5,0.3-0.7,0.2c-2.6-1.7-5.1-2.6-7.9-2.6c-3,0-4.6,1.6-4.6,3.7c0,2,1.4,3.2,5.3,3.8
			l1.8,0.3c7,1,10.8,4.2,10.8,10.4s-4.6,10.8-13.4,10.8C453.6,66.1,448.4,64,445.8,61.4z"/>
		<path class="st3" d="M484.3,65.6c-0.3,0-0.5-0.2-0.5-0.5V38.2c0-0.2-0.1-0.3-0.3-0.3h-8.6c-0.3,0-0.5-0.2-0.5-0.5v-5.6
			c0-0.3,0.2-0.5,0.5-0.5h25.3c0.3,0,0.5,0.2,0.5,0.5v5.6c0,0.3-0.2,0.5-0.5,0.5h-8.6c-0.2,0-0.3,0.1-0.3,0.3V65
			c0,0.3-0.2,0.5-0.5,0.5C490.7,65.6,484.3,65.6,484.3,65.6z"/>
		<path class="st3" d="M523.7,65.6c-0.5,0-0.6-0.2-0.8-0.5L517,52.5h-4.6c-0.2,0-0.3,0.1-0.3,0.3V65c0,0.3-0.2,0.5-0.5,0.5h-6.4
			c-0.3,0-0.5-0.2-0.5-0.5V31.9c0-0.3,0.2-0.5,0.5-0.5h13.6c7,0,11.6,4.4,11.6,10.6c0,4.4-2.3,7.8-6.1,9.5l6.7,13.5
			c0.2,0.3,0,0.6-0.4,0.6C530.8,65.6,523.7,65.6,523.7,65.6z M523.1,42c0-2.6-1.8-4.2-4.6-4.2h-6c-0.2,0-0.3,0.1-0.3,0.3v7.9
			c0,0.2,0.1,0.3,0.3,0.3h6C521.3,46.2,523.1,44.6,523.1,42z"/>
		<path class="st3" d="M536.2,31.9c0-0.3,0.2-0.5,0.5-0.5h6.4c0.3,0,0.5,0.2,0.5,0.5V65c0,0.3-0.2,0.5-0.5,0.5h-6.4
			c-0.3,0-0.5-0.2-0.5-0.5V31.9z"/>
		<path class="st3" d="M550.1,31.9c0-0.3,0.2-0.5,0.5-0.5h21.9c0.3,0,0.5,0.2,0.5,0.5v5.4c0,0.3-0.2,0.5-0.5,0.5h-14.7
			c-0.2,0-0.3,0.1-0.3,0.3v6.8c0,0.2,0.1,0.3,0.3,0.3h12.3c0.3,0,0.5,0.2,0.5,0.5V51c0,0.3-0.2,0.5-0.5,0.5h-12.3
			c-0.2,0-0.3,0.1-0.3,0.3v7.1c0,0.2,0.1,0.3,0.3,0.3h14.7c0.3,0,0.5,0.2,0.5,0.5V65c0,0.3-0.2,0.5-0.5,0.5h-21.9
			c-0.3,0-0.5-0.2-0.5-0.5V31.9z"/>
		<path class="st3" d="M576.8,61.4c-0.2-0.2-0.3-0.6-0.1-0.9l3.8-4.4c0.2-0.3,0.5-0.3,0.8,0c2.3,1.8,5.3,3.5,9,3.5
			c3.6,0,5.6-1.7,5.6-4.1c0-2-1.2-3.3-5.3-3.8l-1.8-0.3c-6.9-1-10.8-4.2-10.8-10.3c0-6.3,4.7-10.5,12.1-10.5c4.5,0,8.8,1.4,11.6,3.6
			c0.3,0.2,0.4,0.4,0.1,0.8l-3.1,4.6c-0.2,0.3-0.5,0.3-0.7,0.2c-2.6-1.7-5.1-2.6-7.9-2.6c-3,0-4.6,1.6-4.6,3.7c0,2,1.4,3.2,5.3,3.8
			l1.8,0.3c7,1,10.8,4.2,10.8,10.4s-4.6,10.8-13.4,10.8C584.7,66.1,579.5,64,576.8,61.4z"/>
	</g>
</g>
</svg>
